<svg xmlns="http://www.w3.org/2000/svg" viewBox="0 0 1024 1024" width="1024" height="1024">
  <title>ChatOverflow</title>
  <g transform="translate(-522.6 -142.4) scale(2)">
    <path fill="#000000" d="
M719.344971,303.774597
	C722.260254,362.094330 705.572021,412.578857 663.415161,453.596649
	C629.437134,486.656616 588.589172,505.800751 541.836731,510.802795
	C472.315826,518.240845 410.956421,499.360291 361.808350,448.179352
	C334.942810,420.202606 319.389526,386.269287 316.649292,347.136139
	C312.346710,285.691101 336.103638,235.973389 381.602722,196.159103
	C417.717377,164.556732 460.518890,148.050171 508.173859,143.549164
	C522.382385,142.207169 536.448547,143.012695 550.522766,144.640533
	C556.229065,145.300522 561.318359,147.478073 563.592407,153.268158
	C566.076233,159.592300 564.383179,165.395752 560.320129,170.552505
	C555.320862,176.897598 548.686890,179.707504 540.628235,179.382828
	C520.390015,178.567490 500.312866,179.695190 480.736359,185.326065
	C434.095612,198.741470 397.518585,225.038269 376.986847,269.997498
	C352.803009,322.953796 366.848877,379.868195 411.034515,417.820709
	C431.640900,435.520203 455.578888,446.515167 482.138733,451.157654
	C554.923889,463.879974 629.965454,425.835144 655.266296,354.739502
	C661.053284,338.477997 664.460022,321.733215 663.767639,304.346649
	C663.329468,293.343231 667.290771,284.695923 677.479614,279.811554
	C688.931763,274.321625 700.406433,273.943695 711.046143,281.792389
	C718.215881,287.081299 719.296082,295.083923 719.344971,303.774597
z"/>
    <path fill="#FF9006" d="
M640.791626,218.430588
	C643.201538,205.893738 651.083679,199.096619 662.649536,196.925598
	C676.136841,194.393890 687.871582,198.154648 695.872192,209.852844
	C702.924072,220.163940 699.937683,234.913834 689.783875,242.906250
	C672.618652,256.417542 646.236389,247.919403 641.227905,227.295975
	C640.546753,224.491226 640.741211,221.686829 640.791626,218.430588
z"/>
    <path fill="#FF9006" d="
M590.275085,182.241089
	C587.748474,170.376740 598.441223,158.519073 613.020142,159.153992
	C622.240723,159.555542 630.433899,163.108368 634.007080,172.579590
	C638.319458,184.010056 629.610657,196.111969 616.014771,198.128357
	C603.985046,199.912491 594.500488,194.182480 590.275085,182.241089
z"/>
  </g>
</svg>
